<mxfile host="app.diagrams.net" agent="Mozilla/5.0 (X11; Linux x86_64; rv:128.0) Gecko/20100101 Firefox/128.0" version="27.1.5">
  <diagram name="Page-1" id="i14OFCTKw3sqM6NhM6lE">
    <mxGraphModel dx="1910" dy="1109" grid="1" gridSize="10" guides="1" tooltips="1" connect="1" arrows="1" fold="1" page="1" pageScale="1" pageWidth="850" pageHeight="1100" math="0" shadow="0">
      <root>
        <mxCell id="0" />
        <mxCell id="1" parent="0" />
        <mxCell id="mQc55FhyLpl-H7E4bMVT-4" style="edgeStyle=orthogonalEdgeStyle;rounded=0;orthogonalLoop=1;jettySize=auto;html=1;exitX=1;exitY=0.5;exitDx=0;exitDy=0;entryX=0;entryY=0.5;entryDx=0;entryDy=0;" edge="1" parent="1" source="mQc55FhyLpl-H7E4bMVT-2" target="mQc55FhyLpl-H7E4bMVT-3">
          <mxGeometry relative="1" as="geometry" />
        </mxCell>
        <mxCell id="mQc55FhyLpl-H7E4bMVT-2" value="cron&amp;nbsp;&amp;nbsp;&amp;nbsp; " style="triangle;whiteSpace=wrap;html=1;" vertex="1" parent="1">
          <mxGeometry x="90" y="210" width="60" height="80" as="geometry" />
        </mxCell>
        <mxCell id="mQc55FhyLpl-H7E4bMVT-6" style="edgeStyle=orthogonalEdgeStyle;rounded=0;orthogonalLoop=1;jettySize=auto;html=1;entryX=0.5;entryY=0;entryDx=0;entryDy=0;" edge="1" parent="1" source="mQc55FhyLpl-H7E4bMVT-3" target="mQc55FhyLpl-H7E4bMVT-5">
          <mxGeometry relative="1" as="geometry" />
        </mxCell>
        <mxCell id="mQc55FhyLpl-H7E4bMVT-8" style="edgeStyle=orthogonalEdgeStyle;rounded=0;orthogonalLoop=1;jettySize=auto;html=1;entryX=0.5;entryY=1;entryDx=0;entryDy=0;" edge="1" parent="1" source="mQc55FhyLpl-H7E4bMVT-3" target="mQc55FhyLpl-H7E4bMVT-7">
          <mxGeometry relative="1" as="geometry" />
        </mxCell>
        <mxCell id="mQc55FhyLpl-H7E4bMVT-11" style="edgeStyle=orthogonalEdgeStyle;rounded=0;orthogonalLoop=1;jettySize=auto;html=1;" edge="1" parent="1" source="mQc55FhyLpl-H7E4bMVT-3" target="mQc55FhyLpl-H7E4bMVT-10">
          <mxGeometry relative="1" as="geometry" />
        </mxCell>
        <mxCell id="mQc55FhyLpl-H7E4bMVT-12" style="edgeStyle=orthogonalEdgeStyle;rounded=0;orthogonalLoop=1;jettySize=auto;html=1;entryX=0;entryY=0.5;entryDx=0;entryDy=0;" edge="1" parent="1" source="mQc55FhyLpl-H7E4bMVT-3" target="mQc55FhyLpl-H7E4bMVT-9">
          <mxGeometry relative="1" as="geometry" />
        </mxCell>
        <mxCell id="mQc55FhyLpl-H7E4bMVT-3" value="&lt;div&gt;scheduled&lt;/div&gt;&lt;div&gt;notification&lt;br&gt;&lt;/div&gt;" style="shape=process;whiteSpace=wrap;html=1;backgroundOutline=1;" vertex="1" parent="1">
          <mxGeometry x="210" y="220" width="120" height="60" as="geometry" />
        </mxCell>
        <mxCell id="mQc55FhyLpl-H7E4bMVT-5" value="done" style="rhombus;whiteSpace=wrap;html=1;" vertex="1" parent="1">
          <mxGeometry x="230" y="340" width="80" height="80" as="geometry" />
        </mxCell>
        <mxCell id="mQc55FhyLpl-H7E4bMVT-7" value="no do" style="rhombus;whiteSpace=wrap;html=1;" vertex="1" parent="1">
          <mxGeometry x="230" y="80" width="80" height="80" as="geometry" />
        </mxCell>
        <mxCell id="mQc55FhyLpl-H7E4bMVT-9" value="no response" style="rhombus;whiteSpace=wrap;html=1;" vertex="1" parent="1">
          <mxGeometry x="370" y="140" width="80" height="80" as="geometry" />
        </mxCell>
        <mxCell id="mQc55FhyLpl-H7E4bMVT-10" value="later" style="rhombus;whiteSpace=wrap;html=1;" vertex="1" parent="1">
          <mxGeometry x="370" y="280" width="80" height="80" as="geometry" />
        </mxCell>
      </root>
    </mxGraphModel>
  </diagram>
</mxfile>
